<svg xmlns="http://www.w3.org/2000/svg" width="32" height="32" viewBox="0 0 24 24" fill="none" stroke="#f97316" stroke-width="2" stroke-linecap="round" stroke-linejoin="round">
  <path d="M12 2C6.5 2 2 6.5 2 12s4.5 10 10 10c.92 0 1.5-.58 1.5-1.5 0-.43-.17-.83-.44-1.14-.27-.31-.44-.71-.44-1.14 0-.83.67-1.5 1.5-1.5H16c2.76 0 5-2.24 5-5 0-4.42-4.03-8-9-8z" />
  <circle cx="7.5" cy="10.5" r="1.5" fill="#14b8a6"/>
  <circle cx="12" cy="7" r="1.5" fill="#f97316"/>
  <circle cx="16.5" cy="10.5" r="1.5" fill="#f97316"/>
</svg>
